<svg width="108" height="102" viewBox="0 0 108 102" fill="none" xmlns="http://www.w3.org/2000/svg">
<path d="M19.75 87.2842V71.7158C19.75 70.6527 19.1874 69.669 18.2711 69.13L4.22894 60.87C3.31262 60.331 2.75 59.3473 2.75 58.2842V43.6732C2.75 42.6331 3.28866 41.6673 4.17352 41.1208L18.411 32.327C19.2495 31.8091 19.7801 30.9125 19.8306 29.9283L20.664 13.6763C20.7174 12.6347 21.308 11.6957 22.2235 11.1962L35.8346 3.77201C36.7184 3.28994 37.7851 3.2833 38.6749 3.75434L52.8463 11.2569C53.7244 11.7217 54.7756 11.7217 55.6537 11.2569L69.7693 3.78388C70.6896 3.2967 71.7966 3.32152 72.6941 3.84944L86.7711 12.13C87.6874 12.669 88.25 13.6527 88.25 14.7158V29.8268C88.25 30.8669 88.7887 31.8327 89.6735 32.3792L103.826 41.1208C104.711 41.6673 105.25 42.6331 105.25 43.6732V58.2842C105.25 59.3473 104.687 60.331 103.771 60.87L89.7289 69.13C88.8126 69.669 88.25 70.6527 88.25 71.7158V87.259C88.25 88.3356 87.6731 89.3296 86.7384 89.8638L72.1832 98.181C71.2908 98.691 70.1995 98.7086 69.2911 98.2277L55.1537 90.7431C54.2756 90.2783 53.2244 90.2783 52.3463 90.7431L38.2307 98.2161C37.3104 98.7033 36.2034 98.6785 35.3059 98.1506L21.2289 89.87C20.3126 89.331 19.75 88.3473 19.75 87.2842Z" fill="white" stroke="#FFDD86" stroke-width="5"/>
<path d="M52.9555 72.1786C53.3039 72.1786 53.6612 72.1003 54.0275 71.9439C54.3937 71.7874 54.6897 71.5963 54.9155 71.3706L75.7048 50.5786C76.375 49.9083 76.8924 49.2239 77.2568 48.5252C77.6195 47.823 77.8008 47.0532 77.8008 46.2159C77.8008 45.3679 77.6195 44.5448 77.2568 43.7466C76.8924 42.9466 76.375 42.2177 75.7048 41.5599L65.7048 31.5599C65.0452 30.8897 64.367 30.3981 63.6701 30.0852C62.975 29.7723 62.2035 29.6159 61.3555 29.6159C60.5181 29.6159 59.7404 29.7723 59.0221 30.0852C58.3039 30.3981 57.6275 30.8888 56.9928 31.5572L54.6675 33.8826L59.6008 38.8292C60.1306 39.3501 60.5261 39.9421 60.7875 40.6052C61.047 41.2683 61.1768 41.9412 61.1768 42.6239C61.1768 44.0123 60.7226 45.1608 59.8141 46.0692C58.9057 46.9777 57.7581 47.431 56.3715 47.4292C55.687 47.4292 55.0195 47.3252 54.3688 47.1172C53.7181 46.9092 53.1324 46.5448 52.6115 46.0239L47.5101 40.9412L35.9955 52.4532C35.727 52.7234 35.5252 53.0301 35.3901 53.3732C35.255 53.7163 35.1875 54.063 35.1875 54.4132C35.1875 55.0426 35.3892 55.5608 35.7928 55.9679C36.1946 56.3768 36.7101 56.5812 37.3395 56.5812C37.6879 56.5812 38.0452 56.503 38.4115 56.3466C38.7777 56.1883 39.0737 55.9963 39.2995 55.7706L47.7501 47.3199L49.6381 49.2079L41.2008 57.6612C40.9306 57.9297 40.7279 58.2354 40.5928 58.5786C40.4595 58.9234 40.3928 59.2701 40.3928 59.6186C40.3928 60.2141 40.6026 60.7217 41.0221 61.1412C41.4417 61.5608 41.9492 61.7714 42.5448 61.7732C42.8932 61.7732 43.2506 61.6941 43.6168 61.5359C43.983 61.3777 44.279 61.1866 44.5048 60.9626L53.5715 51.9119L55.4595 53.7972L46.4061 62.8639C46.1697 63.0897 45.9759 63.3857 45.8248 63.7519C45.6719 64.1181 45.5955 64.4754 45.5955 64.8239C45.5955 65.4177 45.8061 65.9243 46.2275 66.3439C46.647 66.767 47.1546 66.9786 47.7501 66.9786C48.0986 66.9786 48.4452 66.911 48.7901 66.7759C49.135 66.6408 49.4408 66.4381 49.7075 66.1679L58.7741 57.1146L60.6621 59.0026L51.5955 68.0692C51.327 68.3394 51.1252 68.6639 50.9901 69.0426C50.855 69.4212 50.7875 69.767 50.7875 70.0799C50.7875 70.7092 51.0088 71.2168 51.4515 71.6026C51.8941 71.9883 52.3955 72.1812 52.9555 72.1812M52.9395 74.8479C51.5688 74.8479 50.3955 74.3465 49.4195 73.3439C48.4435 72.3394 48.015 71.1003 48.1341 69.6266C46.623 69.6443 45.3652 69.1937 44.3608 68.2746C43.3564 67.3537 42.879 66.0701 42.9288 64.4239C41.2826 64.4417 39.9848 63.9706 39.0355 63.0106C38.0861 62.0506 37.6541 60.7866 37.7395 59.2186C36.2568 59.2363 35.0159 58.8186 34.0168 57.9652C33.0195 57.1154 32.5208 55.9314 32.5208 54.4132C32.5208 53.7288 32.6532 53.0443 32.9181 52.3599C33.183 51.6737 33.5741 51.071 34.0915 50.5519L47.5101 37.1492L54.3955 44.0346C54.6212 44.271 54.9004 44.4657 55.2328 44.6186C55.5652 44.7714 55.9395 44.847 56.3555 44.8452C56.9261 44.8452 57.4301 44.6461 57.8675 44.2479C58.3048 43.8497 58.5244 43.3306 58.5261 42.6906C58.5261 42.2746 58.4497 41.9012 58.2968 41.5706C58.1439 41.2381 57.9501 40.959 57.7155 40.7332L48.5421 31.5599C47.8808 30.8897 47.1937 30.3981 46.4808 30.0852C45.7679 29.7723 44.9875 29.6159 44.1395 29.6159C43.3021 29.6159 42.5412 29.7723 41.8568 30.0852C41.1741 30.3981 40.4977 30.8897 39.8275 31.5599L31.7101 39.6932C31.1377 40.2621 30.6755 40.9421 30.3235 41.7332C29.9715 42.5226 29.7848 43.3377 29.7635 44.1786C29.7457 44.7812 29.7972 45.3599 29.9181 45.9146C30.039 46.4692 30.2346 46.9919 30.5048 47.4826L28.4835 49.5039C28.0355 48.7892 27.6852 47.9661 27.4328 47.0346C27.1804 46.103 27.0639 45.1519 27.0835 44.1812C27.1048 42.9688 27.3475 41.8088 27.8115 40.7012C28.2755 39.5937 28.9404 38.6061 29.8061 37.7386L37.8728 29.6719C38.8026 28.751 39.7866 28.0666 40.8248 27.6186C41.863 27.1723 42.9857 26.9492 44.1928 26.9492C45.3999 26.9492 46.5128 27.1732 47.5315 27.6212C48.5519 28.0674 49.5226 28.751 50.4435 29.6719L52.7635 31.9946L55.0888 29.6719C56.0186 28.751 56.9937 28.0666 58.0141 27.6186C59.0346 27.1723 60.1484 26.9492 61.3555 26.9492C62.5626 26.9492 63.6852 27.1732 64.7235 27.6212C65.7599 28.0674 66.7377 28.751 67.6568 29.6719L77.5928 39.6052C78.5119 40.5243 79.2213 41.5563 79.7208 42.7012C80.2204 43.8461 80.4692 45.0221 80.4675 46.2292C80.4675 47.4381 80.2186 48.5519 79.7208 49.5706C79.223 50.5892 78.5137 51.5599 77.5928 52.4826L56.8008 73.2559C56.2479 73.8106 55.6452 74.2141 54.9928 74.4666C54.3421 74.719 53.6577 74.8452 52.9395 74.8452" fill="#E09400"/>
</svg>
