<svg width="108" height="102" viewBox="0 0 108 102" fill="none" xmlns="http://www.w3.org/2000/svg">
<path d="M19.75 87.2842V71.7158C19.75 70.6527 19.1874 69.669 18.2711 69.13L4.22894 60.87C3.31262 60.331 2.75 59.3473 2.75 58.2842V43.6732C2.75 42.6331 3.28866 41.6673 4.17352 41.1208L18.411 32.327C19.2495 31.8091 19.7801 30.9125 19.8306 29.9283L20.664 13.6763C20.7174 12.6347 21.308 11.6957 22.2235 11.1962L35.8346 3.77201C36.7184 3.28994 37.7851 3.2833 38.6749 3.75434L52.8463 11.2569C53.7244 11.7217 54.7756 11.7217 55.6537 11.2569L69.7693 3.78388C70.6896 3.2967 71.7966 3.32152 72.6941 3.84944L86.7711 12.13C87.6874 12.669 88.25 13.6527 88.25 14.7158V29.8268C88.25 30.8669 88.7887 31.8327 89.6735 32.3792L103.826 41.1208C104.711 41.6673 105.25 42.6331 105.25 43.6732V58.2842C105.25 59.3473 104.687 60.331 103.771 60.87L89.7289 69.13C88.8126 69.669 88.25 70.6527 88.25 71.7158V87.259C88.25 88.3356 87.6731 89.3296 86.7384 89.8638L72.1832 98.181C71.2908 98.691 70.1995 98.7086 69.2911 98.2277L55.1537 90.7431C54.2756 90.2783 53.2244 90.2783 52.3463 90.7431L38.2307 98.2161C37.3104 98.7033 36.2034 98.6785 35.3059 98.1506L21.2289 89.87C20.3126 89.331 19.75 88.3473 19.75 87.2842Z" fill="white" stroke="#FFDD86" stroke-width="5"/>
<path d="M67.4374 42.75C67.1627 46.5628 64.3343 49.5 61.2499 49.5C58.1655 49.5 55.3324 46.5638 55.0624 42.75C54.7812 38.7834 57.5346 36 61.2499 36C64.9652 36 67.7187 38.8556 67.4374 42.75Z" stroke="#E09400" stroke-width="4" stroke-linecap="round" stroke-linejoin="round"/>
<path d="M61.2499 55.5C55.1402 55.5 49.2649 58.5347 47.7931 64.4447C47.5981 65.2266 48.0884 66 48.8918 66H73.609C74.4124 66 74.8999 65.2266 74.7077 64.4447C73.2359 58.44 67.3606 55.5 61.2499 55.5Z" stroke="#E09400" stroke-width="4" stroke-miterlimit="10"/>
<path d="M48.5002 44.4319C48.2808 47.4769 45.9952 49.875 43.5315 49.875C41.0677 49.875 38.7783 47.4778 38.5627 44.4319C38.3387 41.2641 40.5633 39 43.5315 39C46.4996 39 48.7243 41.3222 48.5002 44.4319Z" stroke="#E09400" stroke-width="4" stroke-linecap="round" stroke-linejoin="round"/>
<path d="M49.0624 55.6877C47.3703 54.9124 45.5065 54.6143 43.5312 54.6143C38.6562 54.6143 33.9593 57.0377 32.7828 61.758C32.6281 62.3824 33.0199 63.0002 33.6612 63.0002H44.1874" stroke="#E09400" stroke-width="4" stroke-miterlimit="10" stroke-linecap="round"/>
</svg>
